<svg width="50" height="50" viewBox="0 0 50 50" fill="none" xmlns="http://www.w3.org/2000/svg">
<path d="M25 16.667V27.0837H35.4167V22.917H29.1667V16.667H25Z" fill="black"/>
<path d="M44.3582 17.7023C43.4184 15.4732 42.0542 13.4482 40.3415 11.7398C37.7489 9.14723 34.4534 7.37127 30.8623 6.63147C28.3698 6.12415 25.8007 6.12415 23.3082 6.63147C19.7137 7.36654 16.4154 9.14396 13.8248 11.7419C12.1163 13.4521 10.7526 15.4749 9.80817 17.7002C8.83131 20.0098 8.32967 22.4925 8.33317 25.0002L8.33525 25.0523H4.1665L10.4165 33.3335L16.6665 25.0523H12.5019L12.4998 25.0002C12.4938 22.0947 13.3612 19.2545 14.9894 16.8481C16.0397 15.2954 17.3768 13.9575 18.929 12.9065C20.508 11.8427 22.2793 11.0969 24.1436 10.7106C27.9322 9.93168 31.8751 10.689 35.1055 12.8162C38.3359 14.9434 40.5894 18.2662 41.3707 22.0544C41.7637 23.9958 41.7637 25.9963 41.3707 27.9377C40.9895 29.8036 40.2433 31.5758 39.1748 33.1523C38.654 33.9252 38.0561 34.6523 37.3957 35.3106C36.0648 36.6399 34.4912 37.7014 32.7603 38.4377C31.8786 38.8104 30.9624 39.0951 30.0248 39.2877C28.0841 39.6804 26.0843 39.6804 24.1436 39.2877C22.2796 38.9056 20.5091 38.1601 18.9332 37.094C18.1581 36.5702 17.4347 35.9738 16.7728 35.3127L13.8269 38.2585C15.5668 40.0008 17.6332 41.3826 19.908 42.325C22.1827 43.2673 24.621 43.7517 27.0832 43.7502C29.5895 43.7492 32.0705 43.2485 34.3811 42.2773C37.7303 40.8603 40.5957 38.5008 42.629 35.4856C44.7216 32.3896 45.8378 28.7371 45.8332 25.0002C45.8384 22.493 45.3367 20.0107 44.3582 17.7023Z" fill="black"/>
</svg>
