<svg width="50" height="50" viewBox="0 0 50 50" fill="none" xmlns="http://www.w3.org/2000/svg">
<path d="M32.0624 26.6323C32.3574 25.9873 33.1749 25.3898 33.8799 25.3098C34.5849 25.2298 35.2274 24.5848 35.3074 23.8798C35.3924 23.1798 35.9874 22.3598 36.6299 22.0623C36.9536 21.8976 37.217 21.6349 37.3826 21.3117C37.5483 20.9885 37.6077 20.6212 37.5524 20.2623C37.4074 19.5673 37.7224 18.6048 38.2424 18.1273C38.5003 17.87 38.6699 17.5375 38.727 17.1777C38.784 16.8179 38.7255 16.4493 38.5599 16.1248C38.3885 15.7759 38.2993 15.3923 38.2993 15.0035C38.2993 14.6148 38.3885 14.2312 38.5599 13.8823C38.7259 13.5579 38.7846 13.1892 38.7276 12.8293C38.6705 12.4694 38.5006 12.1369 38.2424 11.8798C37.7224 11.3973 37.4099 10.4373 37.5524 9.74479C37.6084 9.3851 37.5494 9.01691 37.3837 8.69276C37.2181 8.36862 36.9542 8.10509 36.6299 7.93979C36.2864 7.75653 35.9889 7.49777 35.7599 7.18296C35.5308 6.86816 35.3761 6.50551 35.3074 6.12229C35.2504 5.76396 35.0817 5.43279 34.8253 5.176C34.569 4.91921 34.2381 4.74993 33.8799 4.69229C33.4965 4.62492 33.1336 4.47102 32.8186 4.24228C32.5037 4.01355 32.2451 3.71601 32.0624 3.37229C31.8975 3.04806 31.6337 2.78467 31.3092 2.62019C30.9848 2.45571 30.6164 2.39866 30.2574 2.45729C29.8721 2.5113 29.4796 2.47677 29.1096 2.35634C28.7397 2.23592 28.4021 2.03276 28.1224 1.76229C27.6399 1.23729 26.7399 1.09729 26.1224 1.44479C25.5049 1.79229 24.4924 1.79229 23.8774 1.44479C23.5539 1.27659 23.1851 1.21619 22.8249 1.2724C22.4646 1.32862 22.1318 1.49852 21.8749 1.75729C21.5954 2.02807 21.2578 2.23143 20.8878 2.35188C20.5178 2.47233 20.1252 2.50667 19.7399 2.45229C19.3813 2.39461 19.0137 2.4524 18.6902 2.61732C18.3666 2.78225 18.1039 3.04576 17.9399 3.36979C17.6424 4.00979 16.8249 4.60729 16.1199 4.68729C15.761 4.74495 15.4295 4.91451 15.1727 5.17176C14.9159 5.42901 14.7469 5.76081 14.6899 6.11979C14.6221 6.50301 14.4677 6.86569 14.2385 7.18022C14.0093 7.49474 13.7114 7.75282 13.3674 7.93479C13.0442 8.10093 12.7817 8.36489 12.6174 8.68902C12.4531 9.01315 12.3953 9.3809 12.4524 9.73979C12.5899 10.4323 12.2774 11.3948 11.7574 11.8748C11.2374 12.3548 11.0924 13.2548 11.4399 13.8773C11.7874 14.4923 11.7874 15.5048 11.4399 16.1198C11.2741 16.4446 11.2154 16.8137 11.2725 17.1739C11.3295 17.5342 11.4993 17.8671 11.7574 18.1248C12.2799 18.5998 12.5899 19.5623 12.4524 20.2598C12.3953 20.618 12.4531 20.9851 12.6174 21.3085C12.7818 21.6318 13.0443 21.8948 13.3674 22.0598C14.0124 22.3573 14.6049 23.1773 14.6874 23.8773C14.7724 24.5823 15.4124 25.2273 16.1174 25.3073C16.8224 25.3873 17.6399 25.9873 17.9374 26.6298C18.1027 26.9526 18.3657 27.2149 18.689 27.3792C19.0123 27.5436 19.3792 27.6015 19.7374 27.5448C20.4324 27.4073 21.3949 27.7173 21.8724 28.2398C22.1299 28.4973 22.4624 28.6668 22.8221 28.7238C23.1818 28.7808 23.5503 28.7225 23.8749 28.5573C24.4899 28.2098 25.5024 28.2098 26.1199 28.5573C26.7374 28.9048 27.6374 28.7598 28.1199 28.2398C28.6024 27.7148 29.5599 27.4073 30.2549 27.5448C30.6139 27.6026 30.982 27.5455 31.3066 27.3816C31.6312 27.2178 31.8957 26.9555 32.0624 26.6323ZM24.9999 23.4973C22.7456 23.4973 20.5835 22.6018 18.9895 21.0077C17.3954 19.4136 16.4999 17.2516 16.4999 14.9973C16.4999 12.743 17.3954 10.5809 18.9895 8.98689C20.5835 7.39283 22.7456 6.49729 24.9999 6.49729C27.2542 6.49729 29.4162 7.39283 31.0103 8.98689C32.6044 10.5809 33.4999 12.743 33.4999 14.9973C33.4999 17.2516 32.6044 19.4136 31.0103 21.0077C29.4162 22.6018 27.2542 23.4973 24.9999 23.4973ZM14.9374 28.5223L11.8299 46.1448L19.6499 44.9848L26.6024 48.7498L29.6974 31.1973C27.1984 31.928 24.5635 32.0667 22.0016 31.6024C19.4397 31.1381 17.021 30.0835 14.9374 28.5223ZM34.9024 28.6423C34.1217 29.2097 33.2936 29.7091 32.4274 30.1348L30.5574 40.7248L38.9799 36.1548L34.9024 28.6423Z" fill="black"/>
</svg>
