<svg width="50" height="50" viewBox="0 0 50 50" fill="none" xmlns="http://www.w3.org/2000/svg">
<path d="M25.6102 7.53028C25.4232 7.52994 25.2386 7.57154 25.0699 7.65202C24.9011 7.73249 24.7526 7.84979 24.6352 7.99528L24.4127 8.16028C20.1002 6.82528 15.1802 7.80527 11.7552 11.1053C10.3209 12.4662 9.25393 14.1677 8.65339 16.0515C8.05284 17.9353 7.93823 19.9403 8.32019 21.8803C8.27773 21.9177 8.23606 21.9561 8.19519 21.9953L6.24769 23.8703C5.87096 24.2277 5.57095 24.658 5.36593 25.1351C5.16091 25.6122 5.05518 26.126 5.05518 26.6453C5.05518 27.1645 5.16091 27.6784 5.36593 28.1555C5.57095 28.6325 5.87096 29.0629 6.24769 29.4203C7.24269 30.3803 8.62269 30.7403 9.90519 30.5003C10.0627 31.2228 10.4302 31.9103 11.0127 32.4703C11.7802 33.2103 12.7777 33.5928 13.7827 33.6203C13.8102 34.5878 14.2077 35.5478 14.9752 36.2878C15.7427 37.0278 16.7427 37.4128 17.7477 37.4378C17.7727 38.4053 18.1727 39.3678 18.9402 40.1078C19.675 40.8051 20.6375 41.2126 21.6496 41.2549C22.6617 41.2972 23.6548 40.9714 24.4452 40.3378L25.5377 41.3878C27.1377 42.9303 29.7327 42.9303 31.3327 41.3878C32.0977 40.6528 32.4952 39.6978 32.5302 38.7328C33.5578 38.7063 34.5385 38.2971 35.2802 37.5853C36.0452 36.8478 36.4427 35.8928 36.4727 34.9278C37.4887 34.8921 38.4561 34.4837 39.1902 33.7803C39.7977 33.1978 40.1727 32.4753 40.3177 31.7203C40.9612 31.8331 41.6222 31.7933 42.2475 31.6039C42.8728 31.4146 43.4449 31.0811 43.9177 30.6303C44.2948 30.2729 44.5952 29.8424 44.8004 29.365C45.0057 28.8877 45.1115 28.3736 45.1115 27.854C45.1115 27.3344 45.0057 26.8203 44.8004 26.343C44.5952 25.8657 44.2948 25.4352 43.9177 25.0778L42.1177 23.3453L42.4852 21.9703C43.2286 19.1592 42.8522 16.1694 41.4352 13.6303C39.3452 9.86528 35.2902 7.54028 30.9052 7.54028H27.8302C27.6978 7.53371 27.5652 7.53038 27.4327 7.53028H25.6102ZM31.7427 16.8203L37.7552 22.6128L37.7627 22.6178L42.1152 26.8128C42.2566 26.9469 42.3692 27.1083 42.4461 27.2873C42.5231 27.4664 42.5628 27.6592 42.5628 27.854C42.5628 28.0489 42.5231 28.2417 42.4461 28.4207C42.3692 28.5997 42.2566 28.7612 42.1152 28.8953C41.8231 29.1719 41.4362 29.326 41.0339 29.326C40.6317 29.326 40.2448 29.1719 39.9527 28.8953L36.6502 25.7153C36.4081 25.483 36.0856 25.3534 35.7502 25.3534C35.4147 25.3534 35.0923 25.483 34.8502 25.7153L34.8152 25.7453C34.6973 25.8569 34.6034 25.9915 34.5393 26.1406C34.4751 26.2898 34.4421 26.4504 34.4421 26.6128C34.4421 26.7751 34.4751 26.9358 34.5393 27.0849C34.6034 27.2341 34.6973 27.3686 34.8152 27.4803L37.3902 29.9603C37.9902 30.5353 37.9902 31.4703 37.3902 32.0478C37.1247 32.2994 36.7798 32.4507 36.4149 32.4758C36.0499 32.5009 35.6877 32.3982 35.3902 32.1853C35.1419 32.0059 34.8387 31.9192 34.5331 31.9402C34.2276 31.9612 33.9391 32.0886 33.7177 32.3003C33.5013 32.5071 33.3707 32.7878 33.3517 33.0865C33.3327 33.3852 33.4268 33.6802 33.6152 33.9128C33.8396 34.1939 33.9503 34.549 33.9253 34.9078C33.9003 35.2667 33.7414 35.603 33.4802 35.8503C33.2109 36.1057 32.8601 36.2577 32.4896 36.2797C32.1191 36.3016 31.7528 36.1921 31.4552 35.9703C31.2082 35.785 30.9036 35.6929 30.5954 35.7103C30.2871 35.7277 29.9948 35.8534 29.7702 36.0653C29.551 36.2718 29.4181 36.5537 29.3982 36.8542C29.3782 37.1547 29.4727 37.4516 29.6627 37.6853C29.8924 37.9701 30.0063 38.3311 29.9817 38.6962C29.9572 39.0613 29.7959 39.4037 29.5302 39.6553C29.2343 39.9361 28.8419 40.0927 28.4339 40.0927C28.026 40.0927 27.6336 39.9361 27.3377 39.6553L26.2552 38.6128L26.6502 38.2328C27.0273 37.8754 27.3277 37.4449 27.5329 36.9675C27.7382 36.4902 27.844 35.9761 27.844 35.4565C27.844 34.9369 27.7382 34.4228 27.5329 33.9455C27.3277 33.4682 27.0273 33.0377 26.6502 32.6803C25.903 31.9642 24.9148 31.5539 23.8802 31.5303C23.8498 30.518 23.4213 29.5585 22.6877 28.8603C21.9395 28.1445 20.9503 27.7351 19.9152 27.7128C19.8848 26.7005 19.4563 25.741 18.7227 25.0428C18.2424 24.5856 17.6602 24.2495 17.0241 24.0621C16.3881 23.8747 15.7166 23.8415 15.0652 23.9653C14.9004 23.213 14.5148 22.527 13.9577 21.9953C13.5306 21.5878 13.0218 21.2758 12.4649 21.0801C11.908 20.8844 11.3158 20.8095 10.7277 20.8603C10.5307 19.3953 10.6841 17.9045 11.1752 16.5104C11.6663 15.1162 12.4811 13.8584 13.5527 12.8403C14.6355 11.8057 15.9338 11.0236 17.3545 10.5499C18.7753 10.0762 20.2832 9.92263 21.7702 10.1003L18.1327 12.7753C17.6673 13.1135 17.2752 13.5424 16.9802 14.0363C16.6852 14.5302 16.4934 15.0788 16.4163 15.6489C16.3392 16.219 16.3784 16.7989 16.5316 17.3534C16.6848 17.9079 16.9488 18.4256 17.3077 18.8753C18.0334 19.7853 19.0821 20.3804 20.2355 20.5369C21.3889 20.6933 22.5582 20.3991 23.5002 19.7153L27.4402 16.8228H31.7402L31.7427 16.8203ZM19.6127 14.7878L26.0927 10.0303H27.4327C27.5553 10.0296 27.6778 10.033 27.8002 10.0403H30.9052C34.4152 10.0403 37.6177 11.9028 39.2502 14.8453C40.3552 16.8353 40.6452 19.1478 40.0677 21.3303L40.0602 21.3553L33.1602 14.6878C32.9263 14.4532 32.6089 14.321 32.2777 14.3203H27.0277C26.7623 14.3208 26.5041 14.4057 26.2902 14.5628L22.0202 17.6978C21.6008 17.9981 21.0824 18.1268 20.5712 18.0576C20.06 17.9883 19.5946 17.7264 19.2702 17.3253C19.119 17.139 19.0075 16.9238 18.9427 16.6929C18.8778 16.462 18.8609 16.2202 18.893 15.9825C18.9251 15.7448 19.0055 15.5161 19.1292 15.3107C19.253 15.1052 19.4175 14.9273 19.6127 14.7878ZM20.7177 36.3128L20.7427 36.2878L22.6877 34.4128L22.7102 34.3928C23.0039 34.1257 23.3877 33.9796 23.7846 33.9838C24.1815 33.988 24.5622 34.1421 24.8502 34.4153C24.9916 34.5494 25.1042 34.7108 25.1811 34.8898C25.2581 35.0689 25.2978 35.2617 25.2978 35.4565C25.2978 35.6514 25.2581 35.8442 25.1811 36.0232C25.1042 36.2022 24.9916 36.3637 24.8502 36.4978L22.9027 38.3728C22.6106 38.6494 22.2237 38.8035 21.8214 38.8035C21.4192 38.8035 21.0322 38.6494 20.7402 38.3728C20.6007 38.2407 20.4891 38.0819 20.412 37.9059C20.335 37.7299 20.2941 37.5402 20.2918 37.3481C20.2895 37.1559 20.3257 36.9653 20.3985 36.7875C20.4712 36.6096 20.5789 36.4482 20.7152 36.3128H20.7177ZM20.9102 32.6578L20.8852 32.6803L18.9402 34.5553L18.9152 34.5778C18.6213 34.8438 18.2379 34.989 17.8415 34.9843C17.4452 34.9797 17.0652 34.8256 16.7777 34.5528C16.6379 34.4201 16.5262 34.2606 16.4494 34.0839C16.3726 33.9071 16.3321 33.7167 16.3305 33.524C16.3289 33.3313 16.3661 33.1402 16.4399 32.9622C16.5137 32.7841 16.6226 32.6228 16.7602 32.4878L16.7777 32.4703L18.7227 30.5953L18.7402 30.5778C19.0335 30.3086 19.418 30.1608 19.8161 30.164C20.2142 30.1673 20.5963 30.3214 20.8852 30.5953C21.0251 30.7274 21.137 30.8863 21.2143 31.0626C21.2915 31.2388 21.3325 31.4288 21.3349 31.6212C21.3372 31.8136 21.3008 32.0046 21.2278 32.1826C21.1549 32.3607 21.0469 32.5223 20.9102 32.6578ZM16.9227 28.8603L14.9752 30.7353L14.9577 30.7528C14.6643 31.0219 14.2798 31.1698 13.8817 31.1665C13.4836 31.1633 13.1016 31.0092 12.8127 30.7353C12.6713 30.6012 12.5587 30.4397 12.4818 30.2607C12.4048 30.0817 12.3651 29.8889 12.3651 29.694C12.3651 29.4992 12.4048 29.3064 12.4818 29.1273C12.5587 28.9483 12.6713 28.7869 12.8127 28.6528L14.7577 26.7778C15.0499 26.5005 15.4374 26.3459 15.8402 26.3459C16.243 26.3459 16.6305 26.5005 16.9227 26.7778C17.0629 26.9105 17.1749 27.0701 17.2519 27.2471C17.329 27.4241 17.3695 27.6148 17.3712 27.8078C17.3728 28.0008 17.3355 28.1922 17.2614 28.3705C17.1874 28.5487 17.0781 28.7102 16.9402 28.8453L16.9227 28.8603ZM12.1577 25.8128L10.2127 27.6878C9.92078 27.9656 9.5332 28.1206 9.13019 28.1206C8.72717 28.1206 8.33959 27.9656 8.04769 27.6878C7.90591 27.5537 7.79297 27.392 7.71579 27.2128C7.63861 27.0335 7.5988 26.8404 7.5988 26.6453C7.5988 26.4501 7.63861 26.257 7.71579 26.0778C7.79297 25.8985 7.90591 25.7369 8.04769 25.6028L9.99519 23.7278C10.2872 23.4512 10.6742 23.297 11.0764 23.297C11.4787 23.297 11.8656 23.4512 12.1577 23.7278C12.2995 23.8619 12.4124 24.0235 12.4896 24.2028C12.5668 24.382 12.6066 24.5751 12.6066 24.7703C12.6066 24.9654 12.5668 25.1585 12.4896 25.3378C12.4124 25.517 12.2995 25.6787 12.1577 25.8128Z" fill="black"/>
</svg>
