<svg width="50" height="50" viewBox="0 0 50 50" fill="none" xmlns="http://www.w3.org/2000/svg">
<path d="M30.7373 20.8333C32.7498 20.8333 34.3832 22.4667 34.3832 24.4792V31.25H34.3748V33.3333H15.6248V27.0833H15.629V24.4792C15.629 22.4667 17.2603 20.8333 19.2748 20.8333H30.7373ZM45.8332 24.4792C45.8332 23.5122 45.4491 22.5849 44.7653 21.9012C44.0816 21.2174 43.1543 20.8333 42.1873 20.8333H35.1561C35.9748 21.8229 36.4665 23.0938 36.4665 24.4792V27.0833H36.4582V33.3333H44.2707C44.6851 33.3333 45.0825 33.1687 45.3755 32.8757C45.6686 32.5827 45.8332 32.1852 45.8332 31.7708V24.4792ZM13.5415 31.25H13.5457V24.4792L13.5644 24.0208C13.6544 22.8502 14.1057 21.7364 14.8561 20.8333H7.81234L7.51234 20.8458C6.60046 20.9211 5.75023 21.3365 5.13042 22.0096C4.51061 22.6827 4.16654 23.5642 4.1665 24.4792V31.7708C4.1665 32.6333 4.8665 33.3333 5.729 33.3333H13.5415V31.25ZM24.9998 6.25C26.6574 6.25 28.2472 6.90848 29.4193 8.08058C30.5914 9.25269 31.2498 10.8424 31.2498 12.5C31.2498 14.1576 30.5914 15.7473 29.4193 16.9194C28.2472 18.0915 26.6574 18.75 24.9998 18.75C23.3422 18.75 21.7525 18.0915 20.5804 16.9194C19.4083 15.7473 18.7498 14.1576 18.7498 12.5C18.7498 10.8424 19.4083 9.25269 20.5804 8.08058C21.7525 6.90848 23.3422 6.25 24.9998 6.25ZM38.5415 8.33333C39.9228 8.33333 41.2476 8.88207 42.2244 9.85882C43.2011 10.8356 43.7498 12.1603 43.7498 13.5417C43.7498 14.923 43.2011 16.2478 42.2244 17.2245C41.2476 18.2013 39.9228 18.75 38.5415 18.75C37.1602 18.75 35.8354 18.2013 34.8587 17.2245C33.8819 16.2478 33.3332 14.923 33.3332 13.5417C33.3332 12.1603 33.8819 10.8356 34.8587 9.85882C35.8354 8.88207 37.1602 8.33333 38.5415 8.33333ZM11.4582 8.33333C12.8395 8.33333 14.1643 8.88207 15.141 9.85882C16.1178 10.8356 16.6665 12.1603 16.6665 13.5417C16.6665 14.923 16.1178 16.2478 15.141 17.2245C14.1643 18.2013 12.8395 18.75 11.4582 18.75C10.0768 18.75 8.75208 18.2013 7.77532 17.2245C6.79857 16.2478 6.24984 14.923 6.24984 13.5417C6.24984 12.1603 6.79857 10.8356 7.77532 9.85882C8.75208 8.88207 10.0768 8.33333 11.4582 8.33333ZM4.1665 36.9792C4.1665 36.5648 4.33112 36.1673 4.62415 35.8743C4.91717 35.5813 5.3146 35.4167 5.729 35.4167H44.2707C44.6851 35.4167 45.0825 35.5813 45.3755 35.8743C45.6686 36.1673 45.8332 36.5648 45.8332 36.9792V38.0208C45.8332 40.0928 45.0101 42.08 43.5449 43.5451C42.0798 45.0102 40.0927 45.8333 38.0207 45.8333H11.979C9.907 45.8333 7.91986 45.0102 6.45473 43.5451C4.9896 42.08 4.1665 40.0928 4.1665 38.0208V36.9792Z" fill="black"/>
</svg>
