<svg width="50" height="50" viewBox="0 0 50 50" fill="none" xmlns="http://www.w3.org/2000/svg">
<path d="M39.5833 4.16699H12.5C9.9875 4.16699 6.25 5.83158 6.25 10.417V39.5837C6.25 44.1691 9.9875 45.8337 12.5 45.8337H43.75V41.667H12.525C11.5625 41.642 10.4167 41.2628 10.4167 39.5837C10.4167 39.3732 10.4354 39.1857 10.4667 39.0149C10.7 37.8149 11.6833 37.5212 12.525 37.5003H43.75V8.33366C43.75 7.22859 43.311 6.16878 42.5296 5.38738C41.7482 4.60598 40.6884 4.16699 39.5833 4.16699ZM39.5833 22.917L35.4167 20.8337L31.25 22.917V8.33366H39.5833V22.917Z" fill="black"/>
</svg>
